<?xml version="1.0" standalone="no"?><!DOCTYPE svg PUBLIC "-//W3C//DTD SVG 1.1//EN" "http://www.w3.org/Graphics/SVG/1.1/DTD/svg11.dtd"><svg t="1529030045974" class="icon" style="" viewBox="0 0 1024 1024" version="1.1" xmlns="http://www.w3.org/2000/svg" p-id="3587" xmlns:xlink="http://www.w3.org/1999/xlink" width="200" height="200"><defs><style type="text/css"></style></defs><path d="M839.562 344.72c-30.082 0-54.476 24.771-54.476 55.326v216.209c0 30.558 24.393 55.328 54.476 55.328 30.087 0 54.476-24.771 54.476-55.328V400.046c0.001-30.555-24.387-55.326-54.476-55.326z m-657.08 0c-30.085 0-54.476 24.771-54.476 55.326v216.209c0 30.558 24.391 55.328 54.476 55.328s54.476-24.771 54.476-55.328V400.046c0-30.555-24.391-55.326-54.476-55.326zM269.74 346.395v395.014c0 23.462 19.02 42.481 42.483 42.481h48.533v120.293c0 30.558 24.391 55.328 54.476 55.328 30.087 0 54.478-24.771 54.478-55.328V783.889h84.786v120.293c0 30.558 24.393 55.328 54.476 55.328 30.087 0 54.481-24.771 54.481-55.328V783.889h48.528c23.467 0 42.485-19.018 42.485-42.481V346.395H269.741zM625.92 141.706l44.777-64.999c2.657-3.861 1.997-8.932-1.478-11.326-3.475-2.392-8.447-1.204-11.104 2.659l-46.512 67.518c-30.65-12.075-64.707-18.805-100.581-18.805-35.874 0-69.929 6.729-100.579 18.805L363.931 68.04c-2.659-3.863-7.631-5.05-11.106-2.659-3.475 2.395-4.134 7.466-1.476 11.326l44.777 64.999c-71.188 33.117-121.113 96.042-127.467 169.487h484.727c-6.355-73.445-56.28-136.37-127.466-169.487zM408.772 244.144c-14.811 0-26.819-12.005-26.819-26.819 0-14.811 12.007-26.819 26.819-26.819 14.813 0 26.819 12.007 26.819 26.819 0 14.813-12.005 26.819-26.819 26.819z m207.853 0c-14.811 0-26.816-12.005-26.816-26.819 0-14.811 12.004-26.819 26.816-26.819 14.816 0 26.821 12.007 26.821 26.819 0 14.813-12.004 26.819-26.821 26.819z" p-id="3588" fill="#ffffff"></path></svg>